<?xml version="1.0" ?><svg viewBox="0 0 256 256" xmlns="http://www.w3.org/2000/svg"><rect fill="none" height="256" width="256"/><path d="M208,40a23.9,23.9,0,0,0-24,24H72a24,24,0,0,0-48,0v80a64.1,64.1,0,0,0,64,64h80a64.1,64.1,0,0,0,64-64V64A23.9,23.9,0,0,0,208,40Zm-8,104a32,32,0,0,1-32,32H88a32,32,0,0,1-32-32v-8a32,32,0,0,1,32-32h80a32,32,0,0,1,32,32Z" opacity="0.2"/><rect fill="none" height="72" rx="32" stroke="#000" stroke-linecap="round" stroke-linejoin="round" stroke-width="16" width="144" x="56" y="104"/><path d="M24,64a24,24,0,0,1,48,0H184a24,24,0,0,1,48,0v80a64.1,64.1,0,0,1-64,64H88a64.1,64.1,0,0,1-64-64Z" fill="none" stroke="#000" stroke-linecap="round" stroke-linejoin="round" stroke-width="16"/><circle cx="92" cy="140" r="12"/><circle cx="164" cy="140" r="12"/></svg>